<?xml version="1.0" encoding="UTF-8" standalone="no"?>
<!-- Created with Inkscape (http://www.inkscape.org/) -->

<svg
   version="1.1"
   id="svg1"
   width="800"
   height="800"
   viewBox="0 0 800 800"
   sodipodi:docname="appicon.svg"
   inkscape:version="1.4.4 (dcaf3e7d9e, 2026-05-05)"
   xmlns:inkscape="http://www.inkscape.org/namespaces/inkscape"
   xmlns:sodipodi="http://sodipodi.sourceforge.net/DTD/sodipodi-0.dtd"
   xmlns="http://www.w3.org/2000/svg"
   xmlns:svg="http://www.w3.org/2000/svg">
  <defs
     id="defs1" />
  <sodipodi:namedview
     id="namedview1"
     pagecolor="#ffffff"
     bordercolor="#000000"
     borderopacity="0.25"
     inkscape:showpageshadow="2"
     inkscape:pageopacity="0.0"
     inkscape:pagecheckerboard="0"
     inkscape:deskcolor="#d1d1d1"
     inkscape:zoom="1.0575"
     inkscape:cx="400"
     inkscape:cy="400"
     inkscape:window-width="1920"
     inkscape:window-height="1048"
     inkscape:window-x="0"
     inkscape:window-y="0"
     inkscape:window-maximized="1"
     inkscape:current-layer="g1" />
  <g
     inkscape:groupmode="layer"
     inkscape:label="Image"
     id="g1">
    <path
       style="fill:#000000"
       d="M 375.71245,798.99646 C 282.81689,792.10582 199.41706,755.85359 130.33687,692.33663 97.072905,661.7515 65.891255,620.11396 45.086545,578.50001 6.5558047,501.43012 -5.8008253,415.01025 9.4148847,329.01932 29.824685,213.67424 102.18878,111.4977 205.22526,52.539289 294.64077,1.3749314 402.02006,-13.03525 502.33687,12.667246 c 57.00868,14.60638 110.33239,42.023312 157.16346,80.807211 12.97773,10.747723 38.001,35.536073 48.48068,48.025553 46.75005,55.7158 77.58826,121.74015 89.21106,191 4.5117,26.88571 5.1446,35.3903 5.0974,68.5 -0.05,34.8373 -1.4606,49.67682 -7.5587,79.5 -16.4533,80.46548 -60.38077,158.05943 -120.67191,213.15601 -64.36157,58.81631 -141.00118,93.80734 -227.34167,103.79642 -15.7626,1.82364 -55.56629,2.68918 -71.00474,1.54402 z m 68.12442,-12.52943 c 105.37818,-11.68797 198.28083,-63.19619 264.18562,-146.47302 36.08661,-45.59878 62.13418,-100.7758 74.34858,-157.494 6.7607,-31.39355 8.934,-55.969 8.1585,-92.25469 -0.7297,-34.14093 -3.1187,-52.81315 -10.7345,-83.90101 C 763.09917,238.19208 727.86143,175.95772 677.37519,125.45792 612.73169,60.797052 530.75588,22.060066 439.33687,12.974891 c -16.0791,-1.597934 -57.11958,-1.685545 -72,-0.153702 -48.87229,5.031088 -90.65319,16.691373 -133,37.117869 C 171.35963,80.316897 117.9889,126.8451 79.413605,185.00001 c -12.45972,18.78388 -18.55384,29.46372 -27.51467,48.21898 -37.18041,77.8196 -47.2658803,166.48144 -28.52687,250.78102 28.34037,127.49234 119.044625,232.41519 241.464805,279.31626 34.99273,13.40625 74.14888,21.9826 112.5,24.64081 16.69062,1.15687 49.20377,0.42836 66.5,-1.49005 z m -50.75,-6.49819 c -2.18823,-0.87956 -2.83756,-3.27409 -1.69514,-6.25118 0.48129,-1.25423 1.0977,-1.2589 4.64956,-0.0352 4.674,1.61032 9.41011,0.93833 10.66877,-1.51376 1.38999,-2.70793 0.2715,-4.06689 -5.91939,-7.19204 -7.78251,-3.92859 -9.9538,-6.38596 -9.9538,-11.26523 0,-3.11497 0.69233,-4.60377 3.4,-7.31144 3.27263,-3.27263 3.68589,-3.4 11.03139,-3.4 8.25426,0 9.35484,0.73129 8.17503,5.43202 -0.55483,2.21064 -0.89895,2.34447 -3.85124,1.49776 -4.68403,-1.34336 -6.24435,-1.16693 -8.89439,1.0057 -2.09836,1.72034 -2.19404,2.10214 -0.86079,3.43462 0.825,0.82453 4.40825,2.99618 7.96277,4.8259 5.26467,2.71003 6.72217,4.00832 7.86205,7.00324 1.25671,3.30191 1.20957,4.06486 -0.46277,7.48862 -2.41071,4.93541 -7.15268,7.32825 -14.36205,7.2472 -3.025,-0.034 -6.5125,-0.46881 -7.75,-0.96623 z m -11.25,-45.65996 c -39.76509,-2.32201 -83.9632,-13.76036 -122,-31.57326 C 173.05868,662.09677 105.70076,581.97499 80.252315,489.12103 c -8.33337,-30.40607 -11.41252,-54.59067 -11.41422,-89.65088 -0.002,-39.93541 4.65037,-69.54068 16.49548,-104.97014 C 107.88424,227.04952 151.25658,168.81672 210.5872,126.33126 254.24909,95.065867 309.69047,73.943407 364.83687,67.564097 c 17.80518,-2.05969 57.90124,-2.09532 75.50613,-0.0671 89.33585,10.29222 168.9697,54.591253 225.31851,125.341043 66.86426,83.95266 88.8643,196.74076 58.64429,300.65298 -17.42461,59.91491 -52.46262,115.37358 -98.70778,156.23608 -68.18474,60.24846 -153.50181,89.85231 -243.76115,84.58178 z m 59.12505,-12.79023 c 70.05742,-8.22878 134.8599,-39.00515 186.06527,-88.3672 54.5571,-52.59312 88.11465,-119.82101 97.45495,-195.23743 2.26625,-18.29846 2.26194,-56.55793 -0.008,-74.91401 -9.1257,-73.78137 -41.0544,-139.44461 -93.12331,-191.51352 -42.83914,-42.83914 -95.62701,-72.356283 -154.51594,-86.399963 -26.53645,-6.32834 -38.2387,-7.52993 -73.49758,-7.5467 -25.69047,-0.0122 -34.36607,0.3381 -44,1.77675 -87.68531,13.09415 -162.50992,57.164963 -214.79874,126.513933 -33.06746,43.8563 -53.903065,94.16819 -62.396595,150.6695 -2.60697,17.34229 -2.58529,70.87445 0.0354,87.5 6.25865,39.70399 15.81807,69.72175 32.894185,103.29177 45.7256,89.89221 132.96988,154.42396 232.03061,171.62549 10.31298,1.79081 24.26818,3.42983 38.2351,4.49066 9.40859,0.71462 43.23871,-0.43441 55.62505,-1.88928 z m -43.03486,-10.70956 c -0.0856,-0.65596 -42.81883,-168.12883 -47.35512,-185.5863 -1.58474,-6.09874 -2.51537,-8.13733 -3.53595,-7.7457 -0.76181,0.29234 -39.35405,23.25459 -85.76051,51.02722 -46.40647,27.77263 -84.58872,50.4957 -84.84945,50.4957 -0.26072,0 9.04852,-15.4125 20.68722,-34.25 64.17414,-103.86733 84.53069,-137.31095 83.91165,-137.85787 -0.37841,-0.33433 -44.67435,-11.58433 -98.43541,-25 -53.76107,-13.41567 -97.748555,-24.62261 -97.749995,-24.9043 -0.001,-0.28169 4.60989,-1.49398 10.24739,-2.69398 23.587515,-5.02083 188.956595,-42.16713 189.314555,-42.52509 0.21459,-0.21459 -11.81287,-20.16284 -26.72768,-44.32946 -72.59085,-117.61966 -81.69008,-132.4393 -81.31744,-132.4393 0.22032,0 38.73646,24.3 85.59142,54 46.85495,29.7 85.47129,54 85.81409,54 0.34279,0 11.57921,-44.2125 24.96981,-98.25 13.39061,-54.0375 24.65623,-98.827853 25.03473,-99.534113 0.37849,-0.70625 2.38366,5.81875 4.45592,14.50001 3.34324,14.005723 41.09513,176.264443 42.36643,182.092103 0.34374,1.57571 0.99234,2.1204 2.04426,1.71674 0.84743,-0.32519 40.20375,-24.91252 87.45849,-54.63852 47.25473,-29.72599 86.02651,-53.89853 86.15951,-53.71674 0.13299,0.18178 -12.3165,21.03052 -27.66555,46.33052 -51.65169,85.13805 -78.87569,130.70619 -78.38287,131.19901 0.50628,0.50629 26.99946,6.43261 133.13431,29.78115 34.1,7.50163 62.675,13.88984 63.5,14.19601 1.89896,0.70474 9.5725,-1.29746 -66.5,17.35133 -88.63651,21.72879 -128.5991,31.73827 -129.22897,32.36814 -0.28776,0.28775 2.07848,4.70395 5.25829,9.81377 3.17981,5.10982 25.55348,41.46559 49.71926,80.79059 24.16577,39.325 45.47544,73.8625 47.35481,76.75 1.87937,2.8875 3.15457,5.25 2.83377,5.25 -0.4464,0 -136.99336,-80.70404 -168.7458,-99.73468 -3.19475,-1.91476 -6.05254,-3.23747 -6.35065,-2.93936 -0.29811,0.2981 -10.57305,42.75922 -22.83319,94.35802 -21.46263,90.32893 -24.22009,101.63609 -24.41733,100.1251 z m -236.1312,-15.3514 -3.23518,-3.33786 5.7826,-9.30991 c 3.18043,-5.12045 6.50507,-10.43441 7.38809,-11.80879 1.42912,-2.22435 1.0562,-2.10507 -3.3945,1.08573 -2.75,1.97153 -7.93056,5.64672 -11.51235,8.16707 l -6.51235,4.58247 -3.3997,-2.7747 c -2.54811,-2.07966 -3.2222,-3.249 -2.69109,-4.6682 1.50342,-4.01727 17.12763,-32.39349 17.83616,-32.39349 0.41128,0 2.09412,1.2375 3.73964,2.75 l 2.99185,2.75 -7.37092,11.5 c -4.054,6.325 -7.23893,11.64181 -7.07761,11.81513 0.16132,0.17332 5.17649,-3.31276 11.14484,-7.74684 5.96834,-4.43409 11.10076,-8.0634 11.40537,-8.06514 0.3046,-0.002 1.94684,1.45935 3.64942,3.24685 l 3.09559,3.25 -6.41924,10 c -9.33962,14.54941 -9.21299,14.29306 -5.76043,11.66231 9.51755,-7.25208 19.3096,-14.15792 20.03646,-14.13071 1.04024,0.0389 6.71628,4.95305 6.20975,5.37618 -0.20096,0.16787 -7.6342,5.04879 -16.5183,10.84648 l -16.15292,10.54128 z m 475.65919,-3.52692 c -0.99717,-1.68808 -1.6567,-3.15058 -1.46561,-3.25 0.19109,-0.0994 2.09065,-1.06913 4.22125,-2.15491 4.58282,-2.33547 7.03394,-5.66577 6.17104,-8.38451 -0.92915,-2.9275 -2.63069,-3.13395 -8.57536,-1.04046 -11.76478,4.14311 -17.9695,1.36264 -17.9695,-8.05255 0,-4.40405 0.46533,-5.55764 3.67485,-9.11019 2.02117,-2.23719 4.9215,-4.71228 6.44517,-5.50021 2.56664,-1.32726 2.88464,-1.26938 4.32515,0.78725 1.73481,2.47678 2.03877,4.77482 0.63156,4.77482 -2.1553,0 -7.07673,5.29943 -7.07673,7.62027 0,3.52916 2.04045,3.82511 9.3498,1.35614 5.60722,-1.89402 6.97087,-2.02569 10.14164,-0.97924 3.96607,1.30892 7.4985,5.91821 7.50483,9.79266 0.006,3.94603 -3.80115,9.96957 -8.63508,13.66055 -2.55684,1.95229 -5.16206,3.54962 -5.78938,3.54962 -0.62733,0 -1.95646,-1.38116 -2.95363,-3.06924 z m 13.05664,-31.18076 -12.54567,-13.25 6.68542,-6.82073 c 8.66783,-8.84323 9.83429,-9.47486 12.52628,-6.78287 l 2.09718,2.09717 -5.44054,5.50897 -5.44053,5.50896 2.66447,2.66447 2.66446,2.66446 5.42006,-4.6305 5.42005,-4.63049 2.16136,2.30065 2.16135,2.30066 -5.10277,4.77305 -5.10278,4.77305 2.76551,2.88657 c 1.52104,1.58762 3.22967,2.88658 3.79698,2.88658 0.5673,0 3.38684,-2.32612 6.26564,-5.16916 l 5.23418,-5.16916 2.014,2.41916 c 1.1077,1.33054 2.02897,2.72035 2.04726,3.08849 0.0404,0.81357 -16.17588,15.83067 -17.09486,15.83067 -0.35826,0 -6.29692,-5.9625 -13.19705,-13.25 z m -520.67482,4.55987 c -3.50473,-1.24354 -9.03527,-5.75328 -11.60755,-9.46507 -2.94108,-4.24399 -2.96414,-4.16539 2.05975,-7.02169 1.51725,-0.86262 2.05296,-0.79946 2.40442,0.28349 0.72496,2.23383 7.76635,8.8934 9.40329,8.8934 0.82236,0 2.08534,-0.71108 2.80663,-1.58017 1.07214,-1.29185 1.07784,-2.15854 0.0313,-4.75 -3.91747,-9.70026 -4.45492,-12.39349 -3.11753,-15.62223 1.4332,-3.46006 5.50213,-6.0476 9.50989,-6.0476 3.88331,0 9.92482,3.46916 13.44601,7.72097 l 3.12963,3.77903 -2.65783,2.13717 -2.65784,2.13718 -4.30567,-4.49364 c -4.36521,-4.55578 -5.97453,-4.97284 -7.83118,-2.02943 -0.762,1.20802 -0.4038,3.14183 1.3782,7.44048 3.49463,8.42997 3.22404,11.80618 -1.27681,15.9309 -3.55599,3.25882 -6.80629,4.07399 -10.71469,2.68721 z M 24.916265,419.25001 c -1.25416,-4.71398 -8.07938,-33.30904 -8.07938,-33.84954 0,-0.22025 2.01642,-0.40046 4.48094,-0.40046 5.14561,0 4.46085,-1.45099 7.51071,15.91486 1.1026,6.27817 2.14231,11.55244 2.31046,11.72059 0.16816,0.16815 1.35163,-5.41854 2.62994,-12.41486 1.27832,-6.99633 2.5397,-13.28309 2.80307,-13.97059 0.28064,-0.73259 2.26294,-1.25 4.789,-1.25 h 4.31015 l 1.00603,4.75 c 0.55331,2.6125 1.50087,7.675 2.10567,11.25 2.08905,12.34841 2.22312,12.29448 4.97192,-2 l 2.59603,-13.5 4.38088,-0.31424 4.38089,-0.31423 -0.66088,3.31423 c -0.36348,1.82283 -2.51199,10.40174 -4.77446,19.06424 l -4.11358,15.75 h -4.7595 -4.75949 l -1.59833,-8.75 c -0.87907,-4.8125 -1.89357,-10.93551 -2.25443,-13.60668 -0.84475,-6.253 -1.46813,-4.81401 -4.37828,10.10668 l -2.38925,12.25 h -4.7552 c -4.65087,0 -4.7771,-0.0823 -5.75291,-3.75 z m 727.920605,-16.25 v -19 h 12 12 v 3.5 3.5 h -7.5 -7.5 v 4 4 h 7 7 v 3.5 3.5 h -7 -7 v 4.5 4.5 h 8 8 v 3.5 3.5 h -12.5 -12.5 z m -89.37701,-222.57059 -7.87701,-8.55484 2.87701,-3.03215 c 1.58236,-1.66768 7.76966,-7.59085 13.74956,-13.1626 l 10.87254,-10.13047 7.81456,8.47533 7.81456,8.47532 -2.48031,2.5 -2.48032,2.5 -5.02771,-5.25 c -2.76524,-2.8875 -5.36735,-5.25 -5.78247,-5.25 -0.41512,0 -1.82002,1.1339 -3.12199,2.51979 l -2.36723,2.5198 4.88582,4.96041 4.88582,4.96041 -2.40681,2.56193 -2.40681,2.56193 -4.71338,-5.29213 -4.71339,-5.29214 -3.26027,3.20678 -3.26027,3.20679 5.14191,5.91178 5.14191,5.91178 -2.2688,2.13143 c -1.24785,1.17229 -2.46481,2.12789 -2.70436,2.12356 -0.23955,-0.004 -3.9802,-3.85755 -8.31256,-8.56271 z m -544.11107,-9.40089 c -6.59344,-7.12635 -12.11205,-13.32891 -12.26356,-13.78345 -0.15151,-0.45455 1.26646,-2.32096 3.15106,-4.14758 l 3.42654,-3.32114 12.33702,4.19491 c 6.78536,2.3072 13.01202,4.45388 13.83702,4.77041 0.825,0.31652 -2.46602,-3.599 -7.31338,-8.70117 l -8.81338,-9.27666 2.23769,-2.38192 c 1.23074,-1.31006 2.67888,-2.38192 3.21811,-2.38192 0.90014,0 14.74805,14.24667 22.66505,23.31772 l 3.33201,3.81771 -3.08979,3.0898 -3.0898,3.08979 -13.82325,-4.78504 c -7.60279,-2.63178 -14.49826,-5.01385 -15.32326,-5.29349 -0.825,-0.27965 2.99857,4.05978 8.49682,9.64316 l 9.99681,10.15161 -2.99681,2.44841 c -1.64825,1.34662 -3.22182,2.46133 -3.49682,2.47713 -0.275,0.0158 -5.89463,-5.80192 -12.48808,-12.92828 z m 527.74571,-8.23243 -3.09844,-3.09845 4.86602,-14.06987 c 2.67632,-7.73843 4.77007,-14.16583 4.65279,-14.28311 -0.11729,-0.11729 -4.25531,3.56139 -9.19562,8.17484 -4.94031,4.61345 -9.46644,8.40888 -10.05806,8.43429 -0.59163,0.0254 -2.06875,-1.01086 -3.28249,-2.30282 l -2.2068,-2.34903 8.28249,-7.96941 c 4.55537,-4.38318 10.8132,-10.31269 13.90631,-13.1767 l 5.62382,-5.20728 3.18362,3.62594 c 3.74653,4.26707 3.72264,4.52172 -1.93785,20.65185 l -3.76416,10.72634 9.08383,-8.47634 c 4.99611,-4.66199 9.3599,-8.47634 9.69731,-8.47634 0.33742,0 1.57578,1.30156 2.75191,2.89237 l 2.13842,2.89237 -10.20036,9.43832 c -5.6102,5.19107 -11.80775,10.84077 -13.77233,12.5549 l -3.57196,3.11658 z m -498.69053,-20.51981 -15.79374,-10.72371 3.32555,-2.77629 c 1.82905,-1.52695 3.56754,-2.77486 3.86332,-2.77313 0.29578,0.002 5.38149,3.60174 11.30159,8 5.92009,4.39827 10.95623,7.99685 11.19141,7.99685 0.23517,0 -2.88294,-5.2875 -6.92915,-11.75 l -7.35674,-11.75 3.30335,-3.37135 3.30334,-3.37135 9.86199,7.43622 c 14.60308,11.01115 14.32773,11.73538 2.52733,-6.64763 -4.86843,-7.58418 -5.02641,-8.04194 -3.39681,-9.84263 4.32507,-4.779153 4.41213,-4.697173 14.22802,13.39769 l 9.24327,17.03928 -2.807,2.92988 c -1.54386,1.61144 -3.22246,2.92989 -3.73023,2.92989 -0.81547,0 -8.149,-5.07448 -18.66713,-12.91684 l -3.46453,-2.58316 2.1302,3.5 c 1.1716,1.925 4.19314,6.8543 6.71453,10.95401 2.52138,4.09971 4.58433,7.95302 4.58433,8.56291 0,1.36583 -5.22872,6.48308 -6.6243,6.48308 -0.55817,0 -8.12204,-4.82567 -16.8086,-10.72372 z M 385.83687,40.94774 V 21.89548 l 5.19356,0.30226 5.19356,0.302259 6.12286,11.733087 c 3.36757,6.453197 6.47026,12.078197 6.89485,12.5 0.42459,0.421802 0.44626,-4.970587 0.0481,-11.983087 l -0.72383,-12.75 h 4.13543 4.13542 v 19.054792 19.054791 l -4.70943,-0.304791 -4.70944,-0.304792 -7.04056,-13.5 -7.04057,-13.5 -0.27822,13.75 -0.27822,13.75 h -3.47178 -3.47178 z"
       id="path1" />
  </g>
</svg>
